Patient4_TMGait_0pt6_01_right_30_GRF.mot
version=1
nRows=26
nColumns=19
inDegrees=no
endheader
time	F1x	F1y	F1z	M1x	M1y	M1z	F2x	F2y	F2z	M2x	M2y	M2z	EC1x	EC1y	EC1z	EC2x	EC2y	EC2z
35.91	-15.6785	707.0446	58.6995	-269.6456	-56.6216	659.299	-3.9043	7.1685	9.2327	-0.66717	-10.7804	6.7313	-0.0592	0.0182	-0.0073	-0.0462	0.0165	0.9585
35.9218	-8.6125	706.3046	56.1515	-268.6658	-52.1477	658.4898	-2.7441	5.83	6.0136	0.0076892	-7.0313	5.6109	-0.0592	0.0182	-0.0073	-0.0462	0.0165	0.9585
35.9336	-2.039	706.3316	53.9604	-268.0793	-48.0041	657.317	-1.7512	4.6973	3.3666	0.56011	-3.9163	4.6735	-0.0592	0.0182	-0.0073	-0.0462	0.0165	0.9585
35.9454	3.6657	707.8349	52.242	-268.1867	-44.4043	656.4057	-0.98229	3.8505	1.4054	0.97424	-1.5866	3.9756	-0.0592	0.0182	-0.0073	-0.0462	0.0165	0.9585
35.9571	8.4176	711.2885	51.0417	-269.1633	-41.4346	656.3043	-0.4593	3.3057	0.09304	1.2633	-0.006616	3.5425	-0.0592	0.0182	-0.0073	-0.0462	0.0165	0.9585
35.9689	12.2545	716.737	50.3096	-271.0044	-39.0632	657.2498	-0.13788	3.0138	-0.68097	1.4475	0.94369	3.3284	-0.0592	0.0182	-0.0073	-0.0462	0.0165	0.9585
35.9807	15.3471	723.8132	49.9849	-273.538	-37.2105	659.1103	0.0035737	2.8981	-1.052	1.5467	1.4247	3.2737	-0.0592	0.0182	-0.0073	-0.0462	0.0165	0.9585
35.9925	17.8799	731.8561	49.9635	-276.4797	-35.7494	661.4848	0.019726	2.8548	-1.1573	1.5703	1.5912	3.2663	-0.0592	0.0182	-0.0073	-0.0462	0.0165	0.9585
36.0043	20.0662	740.0355	50.1517	-279.4858	-34.5544	663.7698	-0.072189	2.7841	-1.1175	1.5204	1.588	3.2049	-0.0592	0.0182	-0.0073	-0.0462	0.0165	0.9585
36.0161	22.0886	747.5297	50.46	-282.2177	-33.5065	665.3601	-0.23397	2.56	-1.0172	1.3795	1.5151	2.9476	-0.0592	0.0182	-0.0073	-0.0462	0.0165	0.9585
36.0279	24.0956	753.6074	50.8246	-284.3782	-32.5112	665.677	-0.45486	2.0796	-0.91688	1.1236	1.4464	2.3928	-0.0592	0.0182	-0.0073	-0.0462	0.0165	0.9585
36.0396	26.1792	757.7533	51.2133	-285.7511	-31.5155	664.3355	-0.69158	1.2174	-0.84828	0.71368	1.4122	1.4006	-0.0592	0.0182	-0.0073	-0.0462	0.0165	0.9585
36.0514	28.4417	759.713	51.6145	-286.2184	-30.485	661.1707	-0.91174	-0.10156	-0.82216	0.121	1.4203	-0.099358	-0.0592	0.0182	-0.0073	-0.0462	0.0165	0.9585
36.0632	30.9082	759.5011	52.0455	-285.7624	-29.4296	656.2601	-1.0356	-1.9097	-0.83674	-0.66617	1.444	-2.1391	-0.0592	0.0182	-0.0073	-0.0462	0.0165	0.9585
36.075	33.5869	757.3248	52.5314	-284.4378	-28.3687	649.8408	-0.98356	-4.1329	-0.87328	-1.6163	1.4307	-4.6159	-0.0592	0.0182	-0.0073	-0.0462	0.0165	0.9585
36.0868	36.4119	753.5251	53.1152	-282.347	-27.3605	642.3187	-0.62362	-6.531	-0.9064	-2.6273	1.299	-7.2677	-0.0592	0.0182	-0.0073	-0.0462	0.0165	0.9585
36.0986	39.2735	748.5099	53.8357	-279.6221	-26.4816	634.1351	0.17597	-8.612	-0.88597	-3.4942	0.93557	-9.5636	-0.0592	0.0182	-0.0073	-0.0462	0.0165	0.9585
36.1104	42.0148	742.743	54.7143	-276.4207	-25.8128	625.7968	1.5749	-9.5646	-0.74698	-3.8762	0.20225	-10.645	-0.0592	0.0182	-0.0073	-0.0462	0.0165	0.9585
36.1221	44.4945	736.678	55.7405	-272.9079	-25.4017	617.7714	3.7073	-8.1662	-0.40916	-3.2601	-1.0442	-9.2059	-0.0592	0.0182	-0.0073	-0.0462	0.0165	0.9585
36.1339	46.5962	730.7421	56.8721	-269.2478	-25.2572	610.4756	6.6423	-2.7765	0.20832	-0.95401	-2.9178	-3.4807	-0.0592	0.0182	-0.0073	-0.0462	0.0165	0.9585
36.1457	48.31	725.2136	58.0406	-265.5656	-25.3346	604.138	10.3032	8.6081	1.1813	3.8868	-5.4612	8.6907	-0.0592	0.0182	-0.0073	-0.0462	0.0165	0.9585
36.1575	49.698	720.082	59.1418	-261.8976	-25.5319	598.6853	14.3658	28.1432	2.5476	12.1693	-8.5684	29.6265	-0.0592	0.0182	-0.0073	-0.0462	0.0165	0.9585
36.1693	50.8875	714.9364	60.0276	-258.1545	-25.6897	593.6657	18.111	57.7067	4.2831	24.682	-11.897	61.366	-0.0592	0.0182	-0.0073	-0.0462	0.0165	0.9585
36.1811	52.035	708.8778	60.4863	-254.091	-25.5854	588.2126	20.3463	98.2316	6.2429	41.8101	-14.7789	104.9652	-0.0592	0.0182	-0.0073	-0.0462	0.0165	0.9585
36.1929	53.2659	700.514	60.2764	-249.2996	-24.9835	581.0342	19.5147	148.8377	8.1962	63.1667	-16.304	159.5466	-0.0592	0.0182	-0.0073	-0.0462	0.0165	0.9585
36.2046	54.6005	688.0959	59.1504	-243.2526	-23.6754	570.5583	14.3301	206.0158	9.6794	87.2429	-15.4456	221.391	-0.0592	0.0182	-0.0073	-0.0462	0.0165	0.9585
